<?xml version="1.0" encoding="iso-8859-1"?>
<!-- Generator: Adobe Illustrator 18.0.0, SVG Export Plug-In . SVG Version: 6.00 Build 0)  -->
<!DOCTYPE svg PUBLIC "-//W3C//DTD SVG 1.1//EN" "http://www.w3.org/Graphics/SVG/1.1/DTD/svg11.dtd">
<svg xmlns="http://www.w3.org/2000/svg" xmlns:xlink="http://www.w3.org/1999/xlink" version="1.1" id="Capa_1" x="0px" y="0px" viewBox="0 0 441.09 441.09" style="enable-background:new 0 0 441.09 441.09;" xml:space="preserve" width="7em" height="7em">
<g>
	<path d="M71.868,254.171h134.339c0.007,0,0.013,0,0.02,0c2.762,0,5-2.239,5-5c0-0.748-0.164-1.457-0.458-2.093l-23.032-64.639   c-0.71-1.992-2.596-3.322-4.71-3.322H95.048c-2.114,0-4,1.33-4.71,3.322l-23.181,65.054c-0.546,1.531-0.313,3.232,0.624,4.56   C68.718,253.381,70.242,254.171,71.868,254.171z M100.724,217.635l5.822-16.903c0.899-2.611,3.745-3.996,6.355-3.099   c2.611,0.899,3.999,3.745,3.1,6.356l-5.822,16.903c-0.714,2.071-2.653,3.373-4.728,3.373c-0.54,0-1.089-0.088-1.629-0.274   C101.212,223.092,99.825,220.246,100.724,217.635z" fill="#00b0eb"/>
	<path d="M239.005,182.439l-23.18,65.054c-0.546,1.531-0.313,3.232,0.624,4.56c0.936,1.328,2.46,2.118,4.086,2.118h134.338   c0.007,0,0.013,0,0.02,0c2.762,0,5-2.239,5-5c0-0.748-0.164-1.457-0.458-2.093l-23.032-64.639c-0.71-1.992-2.596-3.322-4.71-3.322   h-87.978C241.601,179.117,239.714,180.447,239.005,182.439z M249.392,217.635l5.822-16.903c0.9-2.611,3.744-3.996,6.355-3.099   c2.611,0.899,3.999,3.745,3.1,6.356l-5.822,16.903c-0.714,2.071-2.653,3.373-4.728,3.373c-0.54,0-1.089-0.088-1.629-0.274   C249.88,223.092,248.493,220.246,249.392,217.635z" fill="#00b0eb"/>
	<path d="M120.872,278.814c-0.71-1.992-2.596-3.322-4.71-3.322h-87.98c-2.114,0-4,1.33-4.71,3.322L0.29,343.867   c-0.546,1.531-0.313,3.231,0.624,4.56c0.937,1.328,2.46,2.118,4.086,2.118h134.339c0.007,0,0.013,0,0.02,0c2.762,0,5-2.239,5-5   c0-0.748-0.164-1.457-0.458-2.093L120.872,278.814z M49.137,300.362l-5.822,16.904c-0.714,2.071-2.652,3.373-4.727,3.373   c-0.54,0-1.089-0.088-1.629-0.274c-2.61-0.899-3.998-3.745-3.099-6.356l5.822-16.904c0.899-2.61,3.743-3.998,6.355-3.099   C48.649,294.906,50.037,297.751,49.137,300.362z" fill="#00b0eb"/>
	<path d="M440.632,343.452l-23.031-64.638c-0.71-1.992-2.596-3.322-4.71-3.322H324.91c-2.114,0-4,1.33-4.71,3.322l-23.181,65.053   c-0.546,1.531-0.313,3.231,0.624,4.56c0.936,1.328,2.46,2.118,4.086,2.118h134.342c0.007,0,0.013,0,0.02,0c2.762,0,5-2.239,5-5   C441.09,344.798,440.926,344.089,440.632,343.452z M345.866,300.362l-5.821,16.904c-0.714,2.072-2.652,3.374-4.728,3.374   c-0.54,0-1.089-0.088-1.628-0.274c-2.611-0.899-3.999-3.745-3.1-6.355l5.821-16.904c0.898-2.611,3.746-3.998,6.355-3.1   C345.376,294.906,346.764,297.751,345.866,300.362z" fill="#00b0eb"/>
	<path d="M269.236,278.814c-0.71-1.992-2.596-3.322-4.71-3.322h-87.982c-2.114,0-4.001,1.33-4.71,3.322l-23.176,65.053   c-0.546,1.531-0.314,3.232,0.624,4.56c0.937,1.328,2.46,2.118,4.086,2.118h134.334c0.007,0,0.013,0,0.02,0c2.762,0,5-2.239,5-5   c0-0.748-0.164-1.457-0.458-2.093L269.236,278.814z M197.501,300.362l-5.822,16.904c-0.714,2.071-2.652,3.373-4.727,3.373   c-0.54,0-1.089-0.088-1.629-0.274c-2.61-0.899-3.998-3.745-3.099-6.356l5.822-16.904c0.899-2.61,3.743-3.998,6.355-3.099   C197.013,294.906,198.401,297.751,197.501,300.362z" fill="#00b0eb"/>
	<path d="M153.365,165.598h134.338c0.007,0,0.013,0,0.02,0c2.762,0,5-2.239,5-5c0-0.747-0.164-1.456-0.458-2.093l-23.029-64.638   c-0.71-1.992-2.596-3.322-4.71-3.322h-87.98c-2.114,0-4,1.33-4.71,3.322l-23.18,65.053c-0.546,1.531-0.314,3.232,0.624,4.56   C150.215,164.808,151.739,165.598,153.365,165.598z M182.224,129.062l5.822-16.9c0.899-2.612,3.749-3.997,6.355-3.099   c2.611,0.899,3.999,3.745,3.1,6.356l-5.822,16.9c-0.714,2.072-2.653,3.373-4.727,3.373c-0.54,0-1.09-0.088-1.629-0.274   C182.712,134.519,181.325,131.673,182.224,129.062z" fill="#00b0eb"/>
</g>
<g>
</g>
<g>
</g>
<g>
</g>
<g>
</g>
<g>
</g>
<g>
</g>
<g>
</g>
<g>
</g>
<g>
</g>
<g>
</g>
<g>
</g>
<g>
</g>
<g>
</g>
<g>
</g>
<g>
</g>
</svg>
