<?xml version="1.0" encoding="iso-8859-1"?>
<!-- Generator: Adobe Illustrator 19.0.0, SVG Export Plug-In . SVG Version: 6.00 Build 0)  -->
<svg xmlns="http://www.w3.org/2000/svg" xmlns:xlink="http://www.w3.org/1999/xlink" version="1.1" id="Layer_1" x="0px" y="0px" viewBox="0 0 512 512" style="enable-background:new 0 0 512 512;" xml:space="preserve" width="3em" height="3em">
<g>
	<g>
		<circle cx="407.273" cy="314.182" r="11.636" fill="#c4c9cc"/>
	</g>
</g>
<g>
	<g>
		<path d="M500.364,256h-11.636v-81.455c0-19.782-15.127-34.909-34.909-34.909h-23.273V58.182c0-19.782-15.127-34.909-34.909-34.909    c-6.982,0-11.636,4.655-11.636,11.636c0,6.982,4.655,11.636,11.636,11.636c6.982,0,11.636,4.655,11.636,11.636v81.455h-34.909    V58.182c0-19.782-15.127-34.909-34.909-34.909H104.727c-19.782,0-34.909,15.127-34.909,34.909v81.455H34.909    C15.127,139.636,0,154.764,0,174.545v279.273c0,19.782,15.127,34.909,34.909,34.909h418.909c19.782,0,34.909-15.127,34.909-34.909    v-46.545c0-6.982-4.655-11.636-11.636-11.636s-11.636,4.655-11.636,11.636v46.545c0,6.982-4.655,11.636-11.636,11.636H34.909    c-6.982,0-11.636-4.655-11.636-11.636V174.545c0-6.982,4.655-11.636,11.636-11.636h418.909c6.982,0,11.636,4.655,11.636,11.636    V256H384c-19.782,0-34.909,15.127-34.909,34.909v46.545c0,19.782,15.127,34.909,34.909,34.909h116.364    c6.982,0,11.636-4.655,11.636-11.636v-93.091C512,260.655,507.345,256,500.364,256z M302.545,139.636H139.636v-25.6    c9.309-3.491,17.455-11.636,20.945-20.945H281.6c3.491,9.309,11.636,17.455,20.945,20.945V139.636z M349.091,139.636h-23.273    v-34.909c0-6.982-4.655-11.636-11.636-11.636s-11.636-4.655-11.636-11.636s-4.655-11.636-11.636-11.636H151.273    c-6.982,0-11.636,4.655-11.636,11.636S134.982,93.091,128,93.091s-11.636,4.655-11.636,11.636v34.909H93.091V58.182    c0-6.982,4.655-11.636,11.636-11.636h232.727c6.982,0,11.636,4.655,11.636,11.636V139.636z M488.727,349.091H384    c-6.982,0-11.636-4.655-11.636-11.636v-46.545c0-6.982,4.655-11.636,11.636-11.636h104.727V349.091z" fill="#fff"/>
	</g>
</g>
<g>
	<g>
		<path d="M407.273,186.182H58.182c-6.982,0-11.636,4.655-11.636,11.636s4.655,11.636,11.636,11.636h349.091    c6.982,0,11.636,4.655,11.636,11.636c0,6.982,4.655,11.636,11.636,11.636s11.636-4.655,11.636-11.636    C442.182,201.309,427.055,186.182,407.273,186.182z" fill="#fff"/>
	</g>
</g>
<g>
	<g>
		<path d="M430.545,395.636c-6.982,0-11.636,4.655-11.636,11.636c0,6.982-4.655,11.636-11.636,11.636H58.182    c-6.982,0-11.636,4.655-11.636,11.636s4.655,11.636,11.636,11.636h349.091c19.782,0,34.909-15.127,34.909-34.909    C442.182,400.291,437.527,395.636,430.545,395.636z" fill="#fff"/>
	</g>
</g>
<g>
</g>
<g>
</g>
<g>
</g>
<g>
</g>
<g>
</g>
<g>
</g>
<g>
</g>
<g>
</g>
<g>
</g>
<g>
</g>
<g>
</g>
<g>
</g>
<g>
</g>
<g>
</g>
<g>
</g>
</svg>
