<svg version="1" xmlns="http://www.w3.org/2000/svg" width="9em" height="6.5em" viewBox="0 0 2000.000000 1125.000000">
<path fill="#f2f2f2" d="M1000.5 167.7c-186 6.1-345.4 38.1-489.5 98-30 12.5-72.8 33-96.7 46.3l-7.3 4.1v10.7l10.3-5.6c22.9-12.5 57.4-27.7 87.5-38.6 152.8-55.4 358.6-76.8 587.2-61.1 173.6 12 347.9 46.3 480.7 94.6 8.8 3.3 16.4 5.9 16.7 5.9.4 0 .5-20.3.4-45.2l-.3-45.2-3.5-.8c-1.9-.4-17.1-3.7-33.8-7.3-147.7-31.8-293.6-50.5-434.2-55.5-24.2-.9-95.4-1.1-117.5-.3zM948 446.6c-6.2 1.6-9.9 4-11.7 7.5-1 1.9-1.2 24.6-1 104 .2 115.9-.8 104 9.6 108 8.1 3.1 26 3.8 36.7 1.4 6.2-1.4 8.5-2.4 11.1-5l3.3-3.3V557.6c0-70.8-.3-102.2-1.1-103.9-2.5-5.6-13.4-8.7-29.9-8.6-6.7 0-13.8.6-17 1.5zM645 447.7c-33.2 3.2-55.8 13.7-66.8 31-6.3 10-6.3 9.4-6 79.4l.3 63.4 3 5.8c4.5 9 15.1 18.4 27.8 24.6 16.2 8 33.4 12.2 57.9 14.1 17 1.3 199.4 1.3 201.8 0 5.8-3.1 6.7-28.1 1.2-34.3-1.4-1.6-7.2-1.7-93.6-1.7-56 0-94.8-.4-99.1-1-14.7-2.1-27-7.7-31.9-14.3-2.1-2.8-2.1-3.8-2.1-57.7v-54.8l3.1-3.9c3.6-4.5 12.5-9.5 21.4-12 6-1.7 13.9-1.8 103.9-2.3l97.5-.5 2-3.5c1.8-2.9 2.1-5.2 2.1-14 0-11.1-1.3-16.3-4.6-18-1.6-.9-209-1.2-217.9-.3zM1141.5 447.6c-21.9 2.6-33 5.5-44.9 11.7-11.2 5.8-19.6 14-24.4 23.5l-3.7 7.6-.3 122.8-.2 122.9 2.7 2.5c4.5 4.1 12.2 5.8 26.8 5.9 15.1 0 23-1.9 27.6-6.5l2.9-2.8V667h96.8c96.2 0 115.4-.5 132.2-3.6 32.9-5.9 56.4-19.5 64.9-37.4l2.6-5.5.3-61.9c.3-68.5.3-68.9-6.1-79.5-6.6-11-22.7-22-38.7-26.5-18-5-15.2-4.9-129-5.1-58.6-.2-107.8-.1-109.5.1zm194 38.8c9.1 2.7 17.4 7.5 20.7 12l2.8 3.9v109.4l-2.2 3.3c-2.9 4.3-12.3 9.4-22.4 12.2-7.9 2.3-8.1 2.3-104.6 2.6l-96.8.3v-62.3c0-58.7.2-62.5 1.9-66.4 3.6-7.9 16.1-14.5 31.6-16.7 1.7-.2 39-.4 83-.3 73.6.2 80.5.3 86 2zM1569.5 799.9c-169 86.5-433.7 118.7-731.5 89-155-15.4-316.5-51-429.2-94.4-1.7-.7-1.8 1.9-1.8 44.8v45.4l3.2.6c1.8.3 17 3.5 33.7 7.2C579.6 921.8 711.3 939.6 848 947c31.6 1.8 125 2.4 158 1.1 166.1-6.4 306.7-32.6 438-81.3 47.5-17.7 101.7-42.2 138.8-62.8l7.2-4.1V795c0-2.8-.3-5-.7-4.9-.5 0-9.3 4.4-19.8 9.8z"/></svg>